<svg width="40" height="41" viewBox="0 0 40 41" fill="none" xmlns="http://www.w3.org/2000/svg">
<rect x="0.5" y="1.21191" width="39" height="39" rx="19.5" stroke="black"/>
<path fill-rule="evenodd" clip-rule="evenodd" d="M12.9991 20.7116C12.9991 20.579 13.0518 20.4518 13.1456 20.358C13.2393 20.2642 13.3665 20.2116 13.4991 20.2116H25.2921L22.1451 17.0656C22.0986 17.0191 22.0617 16.9639 22.0366 16.9032C22.0114 16.8424 21.9985 16.7773 21.9985 16.7116C21.9985 16.6458 22.0114 16.5807 22.0366 16.52C22.0617 16.4592 22.0986 16.4041 22.1451 16.3576C22.1916 16.3111 22.2468 16.2742 22.3075 16.249C22.3683 16.2239 22.4334 16.2109 22.4991 16.2109C22.5649 16.2109 22.63 16.2239 22.6907 16.249C22.7514 16.2742 22.8066 16.3111 22.8531 16.3576L26.8531 20.3576C26.8997 20.404 26.9366 20.4592 26.9618 20.5199C26.987 20.5807 27 20.6458 27 20.7116C27 20.7773 26.987 20.8425 26.9618 20.9032C26.9366 20.9639 26.8997 21.0191 26.8531 21.0656L22.8531 25.0656C22.8066 25.1121 22.7514 25.1489 22.6907 25.1741C22.63 25.1993 22.5649 25.2122 22.4991 25.2122C22.4334 25.2122 22.3683 25.1993 22.3075 25.1741C22.2468 25.1489 22.1916 25.1121 22.1451 25.0656C22.0986 25.0191 22.0617 24.9639 22.0366 24.9032C22.0114 24.8424 21.9985 24.7773 21.9985 24.7116C21.9985 24.6458 22.0114 24.5807 22.0366 24.52C22.0617 24.4592 22.0986 24.4041 22.1451 24.3576L25.2921 21.2116H13.4991C13.3665 21.2116 13.2393 21.1589 13.1456 21.0651C13.0518 20.9714 12.9991 20.8442 12.9991 20.7116Z" fill="black"/>
</svg>
