<svg width="40" height="41" viewBox="0 0 40 41" fill="none" xmlns="http://www.w3.org/2000/svg">
<rect x="0.5" y="1.21191" width="39" height="39" rx="19.5" stroke="black"/>
<path fillRule="evenodd" clipRule="evenodd" d="M27.0009 20.7116C27.0009 20.579 26.9482 20.4518 26.8544 20.358C26.7607 20.2642 26.6335 20.2116 26.5009 20.2116H14.7079L17.8549 17.0656C17.9014 17.0191 17.9383 16.9639 17.9634 16.9032C17.9886 16.8424 18.0015 16.7773 18.0015 16.7116C18.0015 16.6458 17.9886 16.5807 17.9634 16.52C17.9383 16.4592 17.9014 16.4041 17.8549 16.3576C17.8084 16.3111 17.7532 16.2742 17.6925 16.249C17.6317 16.2239 17.5666 16.2109 17.5009 16.2109C17.4351 16.2109 17.37 16.2239 17.3093 16.249C17.2486 16.2742 17.1934 16.3111 17.1469 16.3576L13.1469 20.3576C13.1003 20.404 13.0634 20.4592 13.0382 20.5199C13.013 20.5807 13 20.6458 13 20.7116C13 20.7773 13.013 20.8425 13.0382 20.9032C13.0634 20.9639 13.1003 21.0191 13.1469 21.0656L17.1469 25.0656C17.1934 25.1121 17.2486 25.1489 17.3093 25.1741C17.37 25.1993 17.4351 25.2122 17.5009 25.2122C17.5666 25.2122 17.6317 25.1993 17.6925 25.1741C17.7532 25.1489 17.8084 25.1121 17.8549 25.0656C17.9014 25.0191 17.9383 24.9639 17.9634 24.9032C17.9886 24.8424 18.0015 24.7773 18.0015 24.7116C18.0015 24.6458 17.9886 24.5807 17.9634 24.52C17.9383 24.4592 17.9014 24.4041 17.8549 24.3576L14.7079 21.2116H26.5009C26.6335 21.2116 26.7607 21.1589 26.8544 21.0651C26.9482 20.9714 27.0009 20.8442 27.0009 20.7116Z" fill="black"/>
</svg>
