<svg width="57" height="57" viewBox="0 0 57 57" fill="none" xmlns="http://www.w3.org/2000/svg">
<rect x="0.332031" y="0.5" width="56" height="56" rx="28" fill="#FABC4E"/>
<path d="M32.332 37.5V35.5C32.332 34.4391 31.9106 33.4217 31.1605 32.6716C30.4103 31.9214 29.3929 31.5 28.332 31.5H22.332C21.2712 31.5 20.2537 31.9214 19.5036 32.6716C18.7535 33.4217 18.332 34.4391 18.332 35.5V37.5M38.332 37.5V35.5C38.3314 34.6137 38.0364 33.7528 37.4934 33.0523C36.9504 32.3519 36.1902 31.8516 35.332 31.63M32.332 19.63C33.1924 19.8503 33.9551 20.3507 34.4997 21.0523C35.0443 21.7539 35.3399 22.6168 35.3399 23.505C35.3399 24.3932 35.0443 25.2561 34.4997 25.9577C33.9551 26.6593 33.1924 27.1597 32.332 27.38M29.332 23.5C29.332 25.7091 27.5412 27.5 25.332 27.5C23.1229 27.5 21.332 25.7091 21.332 23.5C21.332 21.2909 23.1229 19.5 25.332 19.5C27.5412 19.5 29.332 21.2909 29.332 23.5Z" stroke="white" strokeWidth="2" strokeLinecap="round" strokeLinejoin="round"/>
</svg>
