<svg width="57" height="57" viewBox="0 0 57 57" fill="none" xmlns="http://www.w3.org/2000/svg">
<rect x="0.667969" y="0.5" width="56" height="56" rx="28" fill="#FABC4E"/>
<path d="M28.668 21.5C30.168 20 31.408 19.5 33.168 19.5C34.6267 19.5 36.0256 20.0795 37.0571 21.1109C38.0885 22.1424 38.668 23.5413 38.668 25C38.668 27.29 37.158 29.04 35.668 30.5L28.668 37.5L21.668 30.5C20.168 29.05 18.668 27.3 18.668 25C18.668 23.5413 19.2474 22.1424 20.2789 21.1109C21.3103 20.0795 22.7093 19.5 24.168 19.5C25.928 19.5 27.168 20 28.668 21.5ZM28.668 21.5L25.7081 24.46C25.5049 24.6617 25.3436 24.9016 25.2336 25.1659C25.1235 25.4302 25.0669 25.7137 25.0669 26C25.0669 26.2863 25.1235 26.5698 25.2336 26.8341C25.3436 27.0984 25.5049 27.3383 25.7081 27.54C26.5281 28.36 27.8381 28.39 28.7081 27.61L30.7781 25.71C31.2969 25.2392 31.9725 24.9784 32.6731 24.9784C33.3737 24.9784 34.0492 25.2392 34.5681 25.71L37.5281 28.37M34.668 31.5L32.668 29.5M31.668 34.5L29.668 32.5" stroke="white" stroke-width="2" stroke-linecap="round" stroke-linejoin="round"/>
</svg>
