<svg width="56" height="57" viewBox="0 0 56 57" fill="none" xmlns="http://www.w3.org/2000/svg">
<rect y="0.5" width="56" height="56" rx="28" fill="#D4E7FF"/>
<path d="M34 25.5H36C36.5304 25.5 37.0391 25.7107 37.4142 26.0858C37.7893 26.4609 38 26.9696 38 27.5V38.5L34 34.5H28C27.4696 34.5 26.9609 34.2893 26.5858 33.9142C26.2107 33.5391 26 33.0304 26 32.5V31.5M30 25.5C30 26.0304 29.7893 26.5391 29.4142 26.9142C29.0391 27.2893 28.5304 27.5 28 27.5H22L18 31.5V20.5C18 19.4 18.9 18.5 20 18.5H28C28.5304 18.5 29.0391 18.7107 29.4142 19.0858C29.7893 19.4609 30 19.9696 30 20.5V25.5Z" stroke="#0E79FF" stroke-width="2" stroke-linecap="round" stroke-linejoin="round"/>
</svg>
