<svg width="106" height="37" viewBox="0 0 106 37" fill="none" xmlns="http://www.w3.org/2000/svg">
<path fill-rule="evenodd" clip-rule="evenodd" d="M5.95275 4.10346C4.53824 4.10346 3.39155 5.25015 3.39155 6.66467V31.9581L5.53407 31.2209V30.9294C5.53407 29.3671 5.49663 27.9139 5.46063 26.5171C5.4431 25.8367 5.42591 25.1696 5.41356 24.5098C5.37653 22.5314 5.38421 20.6451 5.58664 18.8883C6.00188 15.2848 7.25084 12.1572 10.5499 9.58443C11.5946 8.76971 13.085 8.22627 14.6228 7.99159C16.1863 7.753 17.9712 7.80609 19.6625 8.35186C21.3728 8.90376 23.0067 9.96964 24.1437 11.7411C25.2763 13.5058 25.8178 15.8173 25.6301 18.6946C25.3045 23.6867 22.1924 26.5944 18.6199 28.483C18.1152 28.7499 17.5968 28.9991 17.0706 29.2337H25.1092C26.5237 29.2337 27.6704 28.087 27.6704 26.6725V6.66467C27.6704 5.25015 26.5237 4.10346 25.1092 4.10346H5.95275ZM8.90093 28.559C9.28568 28.4323 9.67399 28.3061 10.0615 28.1803C10.7085 27.97 11.3532 27.7606 11.975 27.5506C13.7819 26.9403 15.5115 26.29 17.0348 25.4847C20.0484 23.8915 22.0267 21.8328 22.2458 18.4738C22.3984 16.1339 21.9406 14.5876 21.2894 13.573C20.6426 12.5652 19.7083 11.9304 18.6209 11.5795C17.5145 11.2225 16.2723 11.1707 15.1345 11.3443C13.9709 11.5219 13.0857 11.9078 12.6355 12.2589C10.2279 14.1365 9.29541 16.3301 8.95589 19.2766C8.78095 20.7948 8.76791 22.4906 8.80452 24.4463C8.81601 25.0603 8.83254 25.7034 8.84971 26.3714C8.86779 27.0747 8.88657 27.8055 8.90093 28.559ZM11.8763 32.6252H25.1092C28.3968 32.6252 31.0619 29.9601 31.0619 26.6725V6.66467C31.0619 3.37705 28.3968 0.711914 25.1092 0.711914H5.95275C2.66514 0.711914 0 3.37705 0 6.66467V36.7119L11.8763 32.6252Z" fill="white"/>
<path d="M96.8488 33.7386C96.0727 33.7386 95.5156 33.2637 95.5156 32.3506V18.5084C95.5156 17.65 96.0087 17.1387 96.8306 17.1387C97.6524 17.1387 98.1364 17.65 98.1364 18.5084V25.5019H98.1912C98.7117 24.2691 99.7801 23.5751 101.269 23.5751C103.442 23.5751 104.684 24.9814 104.684 27.246V32.3506C104.684 33.2637 104.136 33.7386 103.351 33.7386C102.574 33.7386 102.017 33.2637 102.017 32.3506V27.8122C102.017 26.552 101.396 25.785 100.182 25.785C98.9217 25.785 98.182 26.6707 98.182 27.9583V32.3506C98.182 33.2637 97.6341 33.7386 96.8488 33.7386Z" fill="white"/>
<path d="M90.6574 33.7589C87.7079 33.7589 85.8359 31.823 85.8359 28.6543C85.8359 25.5222 87.6988 23.5498 90.6391 23.5498C92.6024 23.5498 94.237 24.4995 94.7666 25.8875C94.8579 26.1158 94.9127 26.3532 94.9127 26.545C94.9127 27.2024 94.4013 27.586 93.7713 27.586C93.2416 27.586 92.922 27.3759 92.6481 26.892C92.1641 26.0336 91.5706 25.6409 90.7213 25.6409C89.3699 25.6409 88.5389 26.755 88.5389 28.6452C88.5389 30.572 89.3699 31.6678 90.7031 31.6678C91.6345 31.6678 92.2098 31.2112 92.6207 30.5172C92.9768 29.9602 93.269 29.7319 93.8352 29.7319C94.4561 29.7319 94.9584 30.1428 94.9584 30.8003C94.9584 31.0103 94.9036 31.2294 94.7849 31.4943C94.2004 32.8275 92.5294 33.7589 90.6574 33.7589Z" fill="white"/>
<path d="M79.7782 33.7041C77.9154 33.7041 76.5 32.4987 76.5 30.7363C76.5 28.9557 77.8697 27.9238 80.317 27.7777L82.7825 27.6316V26.9833C82.7825 26.0701 82.1433 25.5405 81.1388 25.5405C80.3261 25.5405 79.833 25.8053 79.2395 26.5724C78.9473 26.9011 78.6094 27.0655 78.1802 27.0655C77.5319 27.0655 77.0662 26.6454 77.0662 26.0427C77.0662 25.8327 77.1118 25.6409 77.2031 25.44C77.6597 24.2712 79.2303 23.5498 81.2575 23.5498C83.7687 23.5498 85.4033 24.8465 85.4033 26.8189V32.3983C85.4033 33.284 84.8645 33.7406 84.1066 33.7406C83.3852 33.7406 82.883 33.3388 82.8282 32.5535V32.0513H82.7734C82.2255 33.0923 81.0019 33.7041 79.7782 33.7041ZM80.6549 31.7773C81.8237 31.7773 82.7825 31.0194 82.7825 29.9602V29.2479L80.7188 29.3757C79.7234 29.4488 79.1573 29.8962 79.1573 30.5902C79.1573 31.3208 79.76 31.7773 80.6549 31.7773Z" fill="white"/>
<path d="M71.5871 33.7589C68.6285 33.7589 66.7383 31.8595 66.7383 28.6452C66.7383 25.4766 68.6559 23.5498 71.5871 23.5498C74.5184 23.5498 76.436 25.4674 76.436 28.6452C76.436 31.8687 74.5458 33.7589 71.5871 33.7589ZM71.5871 31.7226C72.893 31.7226 73.7239 30.6176 73.7239 28.6543C73.7239 26.7093 72.8838 25.5861 71.5871 25.5861C70.2905 25.5861 69.4412 26.7093 69.4412 28.6543C69.4412 30.6176 70.2722 31.7226 71.5871 31.7226Z" fill="white"/>
<path d="M60.7981 33.7659C56.8898 33.7659 54.5156 31.2091 54.5156 26.9537C54.5156 22.7076 56.9355 20.1416 60.7251 20.1416C63.1906 20.1416 65.0991 21.2374 66.0031 23.1368C66.1858 23.4838 66.2771 23.8399 66.2771 24.1686C66.2771 24.89 65.7931 25.3557 65.0626 25.3557C64.4416 25.3557 64.049 25.0818 63.7476 24.4426C63.145 23.1002 62.0674 22.4245 60.7525 22.4245C58.6705 22.4245 57.3281 24.1686 57.3281 26.9446C57.3281 29.7571 58.6522 31.4921 60.7616 31.4921C62.1496 31.4921 63.1906 30.8621 63.7842 29.538C64.0672 28.917 64.4142 28.6705 64.9987 28.6705C65.7748 28.6705 66.2862 29.1636 66.2862 29.8941C66.2862 30.2046 66.2132 30.4968 66.0762 30.8164C65.2543 32.6427 63.2911 33.7659 60.7981 33.7659Z" fill="white"/>
<path d="M100.09 20.6973C98.0897 20.6882 96.6013 19.9302 95.9712 18.8984C95.8251 18.6518 95.7703 18.4053 95.7703 18.1587C95.7703 17.6017 96.1903 17.1816 96.857 17.1816C97.204 17.1816 97.4779 17.2912 97.7792 17.5652C98.5006 18.25 99.1946 18.6244 100.08 18.6336C101.541 18.6427 102.4 17.8391 102.4 16.6155V15.054H102.345C101.888 16.1041 100.747 16.8072 99.3316 16.8072C96.8935 16.8072 95.3594 14.9444 95.3594 11.9584C95.3594 8.89018 96.857 7.073 99.3773 7.073C100.784 7.073 101.852 7.81266 102.363 8.91758H102.418V8.37881C102.418 7.47479 102.993 7.02734 103.76 7.02734C104.527 7.02734 105.084 7.47479 105.084 8.37881V16.6337C105.084 19.1814 103.24 20.7156 100.09 20.6973ZM100.236 14.8257C101.569 14.8257 102.427 13.7664 102.427 11.9949C102.427 10.2325 101.569 9.10021 100.236 9.10021C98.9207 9.10021 98.0897 10.2143 98.0897 11.9858C98.0897 13.7756 98.9116 14.8257 100.236 14.8257Z" fill="white"/>
<path d="M87.2121 17.209C86.4359 17.209 85.8789 16.7342 85.8789 15.821V8.36968C85.8789 7.53871 86.3629 7.02734 87.1665 7.02734C87.97 7.02734 88.4997 7.53871 88.4997 8.37881V8.92671H88.5545C89.0749 7.71221 90.0612 7.04561 91.5679 7.04561C93.7412 7.04561 94.9648 8.41534 94.9648 10.7074V15.821C94.9648 16.7342 94.4078 17.209 93.6316 17.209C92.8463 17.209 92.2984 16.7342 92.2984 15.821V11.2644C92.2984 9.98597 91.6957 9.25544 90.4995 9.25544C89.3032 9.25544 88.5453 10.1321 88.5453 11.4014V15.821C88.5453 16.7342 87.9974 17.209 87.2121 17.209Z" fill="white"/>
<path d="M79.4657 17.1728C77.6029 17.1728 76.1875 15.9675 76.1875 14.2051C76.1875 12.4244 77.5572 11.3926 80.0045 11.2465L82.47 11.1004V10.452C82.47 9.53887 81.8308 9.00923 80.8263 9.00923C80.0136 9.00923 79.5205 9.27405 78.927 10.0411C78.6348 10.3698 78.2969 10.5342 77.8677 10.5342C77.2194 10.5342 76.7537 10.1142 76.7537 9.51147C76.7537 9.30144 76.7993 9.10968 76.8906 8.90879C77.3472 7.73995 78.9178 7.01855 80.945 7.01855C83.4562 7.01855 85.0908 8.31524 85.0908 10.2877V15.867C85.0908 16.7528 84.552 17.2094 83.7941 17.2094C83.0727 17.2094 82.5705 16.8076 82.5157 16.0223V15.52H82.4609C81.913 16.561 80.6894 17.1728 79.4657 17.1728ZM80.3424 15.2461C81.5112 15.2461 82.47 14.4882 82.47 13.4289V12.7166L80.4063 12.8445C79.4109 12.9175 78.8448 13.365 78.8448 14.059C78.8448 14.7895 79.4475 15.2461 80.3424 15.2461Z" fill="white"/>
<path d="M68.957 17.0167C68.0895 17.0167 67.5781 16.4871 67.5781 15.5739V5.10001C67.5781 4.18686 68.0895 3.65723 68.957 3.65723C69.8245 3.65723 70.3359 4.18686 70.3359 5.10001V14.7338H75.0112C75.76 14.7338 76.2622 15.163 76.2622 15.8753C76.2622 16.5875 75.7691 17.0167 75.0112 17.0167H68.957Z" fill="white"/>
<path d="M61.3734 12.8266C60.652 12.8266 60.1133 12.3974 60.1133 11.6578C60.1133 10.9181 60.652 10.498 61.3734 10.498H65.1813C65.9027 10.498 66.4415 10.9181 66.4415 11.6578C66.4415 12.3974 65.9027 12.8266 65.1813 12.8266H61.3734Z" fill="white"/>
<path d="M52.6005 20.6425C51.4316 20.6425 50.8015 20.1951 50.8015 19.3915C50.8015 18.8527 51.1759 18.5148 51.7786 18.5148C51.9613 18.5148 52.0617 18.524 52.2443 18.524C52.71 18.524 53.2123 18.3231 53.5319 17.6382L53.6689 17.2912L50.5459 9.05455C50.4454 8.7806 50.3906 8.48839 50.3906 8.26924C50.3906 7.54784 50.9842 7.02734 51.7695 7.02734C52.4726 7.02734 52.8379 7.32869 53.057 8.10487L55.1847 14.8805H55.2304L57.358 8.0866C57.5772 7.34695 57.9607 7.02734 58.6456 7.02734C59.4126 7.02734 59.9422 7.52958 59.9422 8.23271C59.9422 8.45187 59.8874 8.76234 59.7961 9.01802L56.7918 17.1816C55.8787 19.7111 54.7464 20.6425 52.6005 20.6425Z" fill="white"/>
<path d="M37.1898 17.1902C36.4136 17.1902 35.957 16.7154 35.957 15.9026V5.43788C35.957 4.32383 36.6145 3.65723 37.7377 3.65723C38.6965 3.65723 39.2261 4.05902 39.6279 5.08175L42.897 13.1814H42.9701L46.23 5.08175C46.6318 4.06815 47.1706 3.65723 48.1385 3.65723C49.2526 3.65723 49.9101 4.3147 49.9101 5.43788V15.9026C49.9101 16.7154 49.4535 17.1902 48.6773 17.1902C47.9011 17.1902 47.4537 16.7154 47.4537 15.9026V8.12256H47.3806L44.1206 16.0944C43.8832 16.6788 43.518 16.9345 42.9427 16.9345C42.3583 16.9345 41.9747 16.6697 41.7464 16.1035L38.4865 8.12256H38.4134V15.9026C38.4134 16.7154 37.966 17.1902 37.1898 17.1902Z" fill="white"/>
</svg>
